<?xml version="1.0" encoding="utf-8"?>
<svg viewBox="1.81 5.87 418.25 64.97" xmlns="http://www.w3.org/2000/svg">
  <defs>
    <style>.cls-1{fill:#ce2030;}.cls-2{fill:#010101;}.cls-3{fill:#ce2334;fill-rule:evenodd;}</style>
  </defs>
  <g id="Layer_2" data-name="Layer 2" transform="matrix(1, 0, 0, 1, -144, 0)">
    <g id="Layer_1-2" data-name="Layer 1">
      <path class="cls-1" d="M145.81,33.16h3.31v-26h-3.31V6.19h10.41c3.12,0,10.74,0,10.74,6.62,0,5.07-5.55,6.5-7.39,6.7v.08c2.44.16,8.26,1.16,8.26,6.9,0,8.3-9.77,7.62-12,7.62h-10Zm8-14.09h1.36c3.59,0,6.74,0,6.74-6.26,0-5-1.72-5.67-5.59-5.67h-2.51Zm0,14.09h1.79c5.11,0,7-1,7-6.67,0-6.46-4-6.46-7.34-6.46h-1.48Z"/>
      <path class="cls-1" d="M169.47,25c0-4.79,3.75-9.82,9.17-9.82s9.18,5,9.18,9.82-3.75,9.81-9.18,9.81S169.47,29.8,169.47,25Zm9.17,8.86c4.47,0,4.47-4.15,4.47-8.86s0-8.86-4.47-8.86-4.46,4.15-4.46,8.86S174.18,33.88,178.64,33.88Z"/>
      <path class="cls-1" d="M187.86,33.16h2.75V16.88h-3.19v-1h3.07a21.86,21.86,0,0,0,3.95-.32v5.11h.08c.8-1.92,2.47-5.51,6.67-5.51,5.26,0,5.54,3.24,5.54,6.27V33.16h2.83v1H200v-1h2.63V22.22c0-3.46,0-5.66-2.59-5.66s-5.39,4.07-5.39,7.54v9.06h2.95v1h-9.77Z"/>
      <path class="cls-1" d="M226.28,28.41c-.72,2.11-2.23,6.42-7.9,6.42-5.39,0-9.18-4.55-9.18-9.69,0-4.67,4.07-9.94,9-9.94S226,19.59,226,23.66H213.91v3.59c0,2.64,0,6.63,4.39,6.63,4.63,0,6.7-4.08,7.18-5.75Zm-4.67-8.18c0-2.35-.88-4.07-3.43-4.07-4.19,0-4.27,2.83-4.27,6.54h7.7Z"/>
      <path class="cls-1" d="M226.28,33.16H229v-26h-3.19V6.19h3.07a29.36,29.36,0,0,0,4.19-.32V33.16h3v1h-9.77Z"/>
      <path class="cls-1" d="M237.85,33.16h2.75v-26h-3.19V6.19h3.07a29.36,29.36,0,0,0,4.19-.32V33.16h3v1h-9.77Z"/>
      <path class="cls-1" d="M249.34,33.16h2.75V16.88H248.9v-1H252a29.36,29.36,0,0,0,4.19-.32V33.16h3v1h-9.78ZM251.61,9.7a2.4,2.4,0,1,1,2.4,2.39A2.41,2.41,0,0,1,251.61,9.7Z"/>
      <path class="cls-1" d="M260.67,33.16h3.43v-26h-3.43V6.19H281l.32,7.81h-.8c-.88-3.94-1.8-6.86-6.46-6.86h-5.22V19.39H270c4.91,0,4.67-1.48,4.91-4.94h.79V25.7h-.79c-.24-3.12,0-5.35-4.83-5.35h-1.27V33.16h4.5c6.79,0,7.3-3.43,8.34-7.94h.8l-.72,8.89H260.67Z"/>
      <path class="cls-1" d="M283.8,33.16H287V16.88h-3.2v-1h3.08a25.9,25.9,0,0,0,4-.32v4.71h.07c.6-1.55,2.2-5.11,5.55-5.11a2.66,2.66,0,0,1,2.87,2.71,2.11,2.11,0,0,1-2.11,2.28,1.78,1.78,0,0,1-2-1.92c0-.2.09-.39.09-.59,0-.44-.09-.72-.69-.72-1,0-3.58,3.71-3.58,7.26v8.94h3.58v1H283.8Z"/>
      <path class="cls-1" d="M316.4,28.41c-.72,2.11-2.23,6.42-7.9,6.42-5.39,0-9.18-4.55-9.18-9.69,0-4.67,4.08-9.94,9-9.94s7.78,4.39,7.78,8.46H304v3.59c0,2.64,0,6.63,4.39,6.63,4.62,0,6.71-4.08,7.18-5.75Zm-4.67-8.18c0-2.35-.88-4.07-3.43-4.07-4.19,0-4.27,2.83-4.27,6.54h7.7Z"/>
      <path class="cls-1" d="M331.48,31h-.08a6.13,6.13,0,0,1-5.51,3.83c-4.22,0-7.86-4.74-7.86-10s3.64-9.62,7.86-9.62A5.62,5.62,0,0,1,331.16,19h.08V7.14h-3.19V6.19h3.07a29.08,29.08,0,0,0,4.18-.32V33.16h3v1h-2.67a28.86,28.86,0,0,0-4.15.32Zm-5.59,2.88c4.19,0,5.35-4.4,5.35-8.86,0-5-1.19-8.86-5.35-8.86-3.07,0-3.14,3.43-3.14,8.61C322.75,30.48,322.82,33.88,325.89,33.88Z"/>
      <path class="cls-1" d="M354.66,28.41c-.72,2.11-2.23,6.42-7.9,6.42-5.39,0-9.18-4.55-9.18-9.69,0-4.67,4.07-9.94,9-9.94s7.78,4.39,7.78,8.46H342.29v3.59c0,2.64,0,6.63,4.39,6.63,4.63,0,6.71-4.08,7.18-5.75ZM350,20.23c0-2.35-.88-4.07-3.43-4.07-4.19,0-4.27,2.83-4.27,6.54H350Z"/>
      <path class="cls-2" d="M344.64,62h-8.17V48.59a1,1,0,1,0-2,0V62.82a1,1,0,0,0,1,1h9.17a.93.93,0,0,0,0-1.85"/>
      <path class="cls-2" d="M355.08,47.43a8.18,8.18,0,0,0-8.23,8.33v.05A8.05,8.05,0,0,0,355,64.1a8.21,8.21,0,0,0,8.25-8.34v0a8.07,8.07,0,0,0-8.21-8.29m0,14.82a6.28,6.28,0,0,1-6.18-6.49v0A6.16,6.16,0,0,1,355,49.27a6.28,6.28,0,0,1,6.19,6.49v.05a6.17,6.17,0,0,1-6.15,6.44"/>
      <path class="cls-2" d="M381.22,47.63H381a1,1,0,0,0-.92.53l-5.61,8.43-5.62-8.43a1,1,0,0,0-.91-.53h-.21a1,1,0,0,0-1,1V63a1,1,0,1,0,1.93,0V51.38l4.91,7.22a1,1,0,0,0,.86.49,1,1,0,0,0,.82-.49l4.93-7.24V62.94a1,1,0,0,0,1,1,1,1,0,0,0,1-1V48.61a1,1,0,0,0-1-1"/>
      <path class="cls-2" d="M396.22,55.47a3.89,3.89,0,0,0,2.35-3.67v0a3.66,3.66,0,0,0-1-2.61,5.88,5.88,0,0,0-4.23-1.43h-5.9a1,1,0,0,0-1,1V62.82a1,1,0,0,0,1,1h6.19c3.62,0,5.87-1.71,5.87-4.45v0c0-1.85-1.09-3.15-3.24-3.87M393.63,62h-5.25V56.58h4.94c2.66,0,4.13.94,4.13,2.64v0C397.45,61,396,62,393.63,62m-5.25-7.22V49.5h4.75c2.15,0,3.43.94,3.43,2.5v0c0,1.73-1.32,2.75-3.56,2.75Z"/>
      <path class="cls-2" d="M410.75,48.38a1.25,1.25,0,0,0-1.21-.86h-.09a1.28,1.28,0,0,0-1.23.85L401.76,62.5a1.25,1.25,0,0,0-.13.53.92.92,0,0,0,.92.91,1,1,0,0,0,1-.67l1.64-3.65h8.61l1.63,3.6a1.09,1.09,0,0,0,1,.72,1,1,0,0,0,.95-1,1.33,1.33,0,0,0-.12-.49ZM413,57.79h-7L409.45,50Z"/>
      <path class="cls-2" d="M427.41,47.71h-6a1,1,0,0,0-1,1V62.94a1,1,0,1,0,2,0V57.63h4.43l4.45,5.8a1.17,1.17,0,0,0,.92.51,1,1,0,0,0,1-1,1,1,0,0,0-.31-.73l-3.87-5c2.66-.56,4.18-2.26,4.18-4.68v0a4.4,4.4,0,0,0-1.26-3.2,6.36,6.36,0,0,0-4.59-1.62m3.84,4.89v0c0,1.93-1.57,3.18-4,3.18h-4.8V49.56h4.82c2.49,0,4,1.13,4,3"/>
      <path class="cls-2" d="M451,55.76v0c0-4.65-3.6-8-8.57-8h-4.64a1,1,0,0,0-1,1V62.82a1,1,0,0,0,1,1h4.64c5,0,8.57-3.39,8.57-8.07M442.42,62h-3.63V49.56h3.63c3.83,0,6.51,2.54,6.51,6.2v.05c0,3.63-2.68,6.17-6.51,6.17"/>
      <path class="cls-2" d="M455.62,63.94a1,1,0,0,0,1-1V48.59a1,1,0,1,0-2,0V62.94a1,1,0,0,0,1,1"/>
      <path class="cls-2" d="M292.57,54.35h1.27l2.49,8.35h0l2.38-8.35h1.34l2.38,8.35h0l2.5-8.35h1.26l-3.13,9.75h-1.31l-2.4-8.2h0L297,64.1h-1.3Z"/>
      <path class="cls-2" d="M307.58,50.61h1.19v1.91h-1.19Zm0,3.74h1.19V64.1h-1.19Z"/>
      <path class="cls-2" d="M313,54.35h2v1h-2v6.58c0,.77.11,1.23,1,1.29a8.72,8.72,0,0,0,1-.06v1c-.36,0-.7,0-1.06,0-1.58,0-2.13-.53-2.11-2.2V55.35h-1.7v-1h1.7V51.42H313Z"/>
      <path class="cls-2" d="M316.64,50.61h1.19V56h0a3.31,3.31,0,0,1,3.12-2c2.74,0,3.58,1.43,3.58,3.76V64.1h-1.2V58c0-1.69-.54-3-2.47-3s-3,1.43-3.06,3.34V64.1h-1.19Z"/>
      <rect class="cls-1" x="290.52" y="69.84" width="273.54" height="1"/>
    </g>
  </g>
</svg>